<svg xmlns="http://www.w3.org/2000/svg" xmlns:xlink="http://www.w3.org/1999/xlink" width="18" zoomAndPan="magnify" viewBox="0 0 768 767.999994" height="18" preserveAspectRatio="xMidYMid meet" version="1.0"><path fill="#ffffff" d="M 385.28125 36.582031 C 479.828125 36.582031 556.75 113.507812 556.75 208.054688 C 556.75 282.320312 444.164062 462.769531 385.28125 549.117188 C 326.402344 462.78125 213.8125 282.355469 213.8125 208.054688 C 213.8125 113.507812 290.734375 36.582031 385.28125 36.582031 Z M 370.351562 591.769531 C 373.78125 596.613281 379.347656 599.492188 385.28125 599.492188 C 391.214844 599.492188 396.78125 596.613281 400.210938 591.769531 C 400.691406 591.089844 448.625 523.15625 495.894531 443.257812 C 560.542969 333.980469 593.324219 254.851562 593.324219 208.054688 C 593.324219 93.339844 499.996094 0.0117188 385.28125 0.0117188 C 270.566406 0.0117188 177.238281 93.339844 177.238281 208.054688 C 177.238281 254.851562 210.019531 333.980469 274.667969 443.257812 C 321.9375 523.15625 369.871094 591.089844 370.351562 591.769531 " fill-opacity="1" fill-rule="nonzero"/><path fill="#ffffff" d="M 328.566406 208.054688 C 328.566406 176.769531 354.011719 151.316406 385.28125 151.316406 C 416.554688 151.316406 441.996094 176.769531 441.996094 208.054688 C 441.996094 239.339844 416.554688 264.792969 385.28125 264.792969 C 354.011719 264.792969 328.566406 239.339844 328.566406 208.054688 Z M 478.566406 208.054688 C 478.566406 156.601562 436.714844 114.742188 385.28125 114.742188 C 333.847656 114.742188 291.996094 156.601562 291.996094 208.054688 C 291.996094 259.507812 333.847656 301.363281 385.28125 301.363281 C 436.714844 301.363281 478.566406 259.507812 478.566406 208.054688 " fill-opacity="1" fill-rule="nonzero"/><path fill="#ffffff" d="M 764.960938 744.808594 L 671.386719 407.867188 C 669.191406 399.953125 661.984375 394.476562 653.777344 394.476562 L 589.511719 394.476562 C 579.417969 394.476562 571.226562 402.660156 571.226562 412.761719 C 571.226562 422.855469 579.417969 431.046875 589.511719 431.046875 L 639.871094 431.046875 L 723.289062 731.417969 L 43.757812 731.417969 L 127.1875 431.046875 L 181.050781 431.046875 C 191.152344 431.046875 199.335938 422.855469 199.335938 412.761719 C 199.335938 402.660156 191.152344 394.476562 181.050781 394.476562 L 113.289062 394.476562 C 105.078125 394.476562 97.871094 399.953125 95.675781 407.863281 L 2.078125 744.808594 C 0.550781 750.316406 1.679688 756.21875 5.136719 760.769531 C 8.597656 765.316406 13.984375 767.988281 19.699219 767.988281 L 747.339844 767.988281 C 753.054688 767.988281 758.441406 765.316406 761.902344 760.769531 C 765.351562 756.21875 766.488281 750.316406 764.960938 744.808594 " fill-opacity="1" fill-rule="nonzero"/></svg>